<svg width="36" height="36" viewBox="-2 -2 40 40" xmlns="http://www.w3.org/2000/svg">
    <g fill="none" fill-rule="evenodd">
        <circle fill="#FFAD02" cx="19" cy="19" r="19"></circle>
        <path
            d="M24.701 19.676a3.63 3.63 0 0 0 1.469-2.06c.741-2.767-.46-4.868-3.204-5.604h.001l.888-3.32a.228.228 0 0 0-.16-.28l-1.317-.353a.227.227 0 0 0-.275.154l-.892 3.33-1.756-.471.888-3.321a.228.228 0 0 0-.16-.28l-1.317-.353a.227.227 0 0 0-.275.154l-.892 3.33-3.735-1a.228.228 0 0 0-.278.16l-.356 1.33a.236.236 0 0 0 .16.28l.22.058a1.826 1.826 0 0 1 1.282 2.242l-1.896 7.084a1.828 1.828 0 0 1-2.075 1.335.228.228 0 0 0-.238.114l-.69 1.247a.231.231 0 0 0-.012.2.227.227 0 0 0 .15.132l3.672.984-.892 3.33c-.027.119.043.239.16.27l1.318.353a.228.228 0 0 0 .279-.162l.891-3.32 1.756.47-.892 3.33c-.027.119.043.239.161.27l1.317.353a.228.228 0 0 0 .279-.162l.891-3.32.877.235c2.744.735 4.835-.484 5.576-3.251a3.633 3.633 0 0 0-.923-3.488zm-5.96-5.948l2.635.705a1.826 1.826 0 0 1 1.281 2.242 1.826 1.826 0 0 1-2.23 1.3l-2.634-.706.949-3.541zm1.14 9.795l-3.512-.941.95-3.542 3.511.941a1.826 1.826 0 0 1 1.282 2.242 1.826 1.826 0 0 1-2.23 1.3z"
            fill="#FFF"
        ></path>
    </g>
</svg>
