<svg xmlns="http://www.w3.org/2000/svg" width="36" height="36" viewBox="0 0 32 32">
    <g fill="none" fill-rule="evenodd">
        <ellipse cx="16" cy="16" fill="#6F7CBA" rx="16" ry="16"></ellipse>
        <path
            fill="#FFF"
            d="M10.129 17.759c-.104-.149-.062-.198.087-.115l5.494 3.084a.64.64 0 0 0 .556 0l5.589-3.078c.155-.085.193-.031.09.115l-5.746 8.125c-.105.148-.276.146-.378 0l-5.692-8.131zm.039-2.032a.291.291 0 0 1-.125-.418l5.738-9.202c.093-.15.246-.148.338 0l5.774 9.189c.094.149.043.334-.124.418l-5.507 2.777a.727.727 0 0 1-.587 0l-5.507-2.764z"
        ></path>
    </g>
</svg>
