<svg
    width="36"
    height="36"
    version="1.1"
    id="Layer_1"
    xmlns="http://www.w3.org/2000/svg"
    xmlns:xlink="http://www.w3.org/1999/xlink"
    x="0px"
    y="0px"
    viewBox="0 0 36 36"
    xml:space="preserve"
>
    <style type="text/css">
        .st0 {
            fill: #ffffff;
            stroke: #000000;
            stroke-miterlimit: 10;
        }
        .st1 {
            fill: #22a37c;
        }
    </style>
    <rect x="6.2" y="7.4" class="st0" width="23.7" height="23.1" />
    <path
        class="st1"
        d="M18,36C8.1,36,0,27.9,0,18S8.1,0,18,0s18,8.1,18,18S27.9,36,18,36z M20.2,15.5v-2.7h6.1V8.8H9.7v4.1h6.1v2.7
c-4.9,0.2-8.7,1.2-8.7,2.4s3.7,2.2,8.7,2.4v8.5h4.4v-8.5c4.9-0.2,8.7-1.2,8.7-2.4C28.8,16.7,25.1,15.7,20.2,15.5z M20.2,19.6
L20.2,19.6c-0.1,0-0.8,0-2.2,0c-1.1,0-1.9,0-2.2,0v0c-4.4-0.2-7.6-1-7.6-1.9c0-0.9,3.3-1.7,7.6-1.9v3c0.3,0,1.1,0.1,2.2,0.1
c1.4,0,2-0.1,2.2-0.1v-3c4.4,0.2,7.6,1,7.6,1.9C27.8,18.6,24.5,19.4,20.2,19.6z"
    />
</svg>
