<?xml version="1.0" standalone="no"?>
<!DOCTYPE svg PUBLIC "-//W3C//DTD SVG 20010904//EN"
 "http://www.w3.org/TR/2001/REC-SVG-20010904/DTD/svg10.dtd">
<svg version="1.0" xmlns="http://www.w3.org/2000/svg"
 width="339.000000pt" height="110.000000pt" viewBox="0 0 339.000000 110.000000"
 preserveAspectRatio="xMidYMid meet">

<g transform="translate(0.000000,110.000000) scale(0.100000,-0.100000)"
fill="#0F357E" stroke="none">
<path d="M2058 1074 c-126 -30 -218 -98 -268 -196 -25 -51 -30 -73 -30 -133 0
-125 59 -196 249 -299 108 -58 125 -75 125 -123 0 -108 -204 -137 -395 -55
l-47 20 -24 -111 c-13 -62 -21 -116 -17 -121 16 -19 151 -47 254 -52 305 -16
503 114 513 339 4 68 1 84 -23 132 -33 68 -73 102 -212 181 -123 70 -152 100
-137 140 5 15 22 36 37 48 25 18 42 21 130 20 76 -1 116 -6 158 -21 l56 -21
23 110 c27 127 31 119 -72 143 -82 18 -242 18 -320 -1z"/>
<path d="M10 1057 c0 -7 39 -24 95 -41 125 -38 190 -69 211 -101 9 -14 67
-220 129 -458 l111 -432 148 0 149 0 203 485 c112 267 210 502 219 523 l15 37
-144 0 -144 0 -139 -350 c-76 -192 -141 -346 -144 -342 -3 4 -29 133 -58 287
-65 348 -65 348 -102 379 l-31 26 -259 0 c-204 0 -259 -3 -259 -13z"/>
<path d="M1405 1058 c-2 -7 -53 -242 -113 -523 l-109 -510 135 -3 c74 -1 136
-1 137 0 2 2 51 228 110 503 58 275 109 510 112 523 5 22 5 22 -131 22 -100 0
-138 -3 -141 -12z"/>
<path d="M2872 1057 c-12 -7 -28 -22 -36 -32 -10 -15 -369 -862 -417 -982 l-9
-23 144 0 144 0 27 75 28 75 177 0 177 0 13 -75 13 -75 129 0 c128 0 128 0
123 22 -3 13 -50 239 -105 503 -55 264 -102 490 -105 503 -5 22 -8 22 -143 22
-91 -1 -145 -5 -160 -13z m142 -457 c20 -96 39 -183 42 -192 5 -16 -5 -18
-105 -18 -61 0 -111 3 -111 8 -1 9 133 382 136 379 1 -1 18 -81 38 -177z"/>
</g>
</svg>
