<?xml version="1.0" encoding="utf-8"?>
<!-- Generator: Adobe Illustrator 18.1.1, SVG Export Plug-In . SVG Version: 6.00 Build 0)  -->
<svg version="1.1" id="Layer_1" xmlns="http://www.w3.org/2000/svg" xmlns:xlink="http://www.w3.org/1999/xlink" x="0px" y="0px"
	 viewBox="39 728.3 872 153" enable-background="new 39 728.3 872 153" xml:space="preserve">
<path fill="#FFFFFF" d="M380.5,785.1c-3.8-6.1-11.4-9.9-19.7-9.9c-18.2,0-31.7,10.5-31.7,31.7c0,21.2,13.6,32.5,31.7,32.5
	c6.8,0,16.7-3.8,19.7-10.5l0.9,9h14.4v-61.2h-14.4L380.5,785.1L380.5,785.1z M362.3,788.8c24.1,0,24.1,37,0,37
	c-9.9,0-18.2-6.8-18.2-18.8C344.2,795.6,351.8,788.8,362.3,788.8L362.3,788.8z M472,813c2.3-25-10.5-37.8-31-37.8
	c-19.7,0-32.5,13.6-32.5,31.7c0,19.7,12.9,32.5,34,32.5c9,0,19.7-3,26.5-9.9l-9.9-9.9c-3.8,3.8-10.5,6.1-16.7,6.1
	c-10.5,0-17.3-5.3-18.2-12.9L472,813L472,813z M424.3,800.1c2.3-7.5,9-12.1,17.3-12.1s15.2,3.8,15.8,12.1H424.3L424.3,800.1z
	 M485.6,776.8V838h15.2v-32.5c0-11.4,7.5-15.8,15.2-15.8c5.3,0,7.5,1.5,10.5,3.8l6.8-12.9c-3-3-9-6.1-15.8-6.1
	c-6.1,0-12.9,0.9-17.3,8.3l-0.9-6.8L485.6,776.8L485.6,776.8z M589.9,785.1c-3.8-6.1-11.4-9.9-19.7-9.9c-18.2,0-31.7,10.5-31.7,31.7
	c0,21.2,13.6,32.5,31.7,32.5c6.8,0,16.7-3.8,19.7-10.5l0.9,9h14.4v-61.2h-14.5L589.9,785.1L589.9,785.1z M571.8,788.8
	c24.1,0,24.1,37,0,37c-9.9,0-18.2-6.8-18.2-18.8C553.6,795.6,561.9,788.8,571.8,788.8L571.8,788.8z M653.3,825.2
	c-10.5,0-17.3-7.5-17.3-17.3c0-9.9,6.8-17.3,17.3-17.3c10.5,0,17.3,7.5,17.3,17.3C670.9,816.8,664,825.2,653.3,825.2L653.3,825.2z
	 M634.5,863.6v-32.5c4.5,6.8,13.6,8.3,20.4,8.3c19.7,0,31-14.4,31-31.7c0-18.2-12.9-31.7-31.7-31.7c-6.8,0-15.2,3-19.7,9.9l-0.9-8.3
	h-14.4v86.8h15.1V863.6z M747.2,785.1c-3.8-6.1-11.4-9.9-19.7-9.9c-18.2,0-31.7,10.5-31.7,31.7c0,21.2,13.6,32.5,31.7,32.5
	c6.8,0,16.7-3.8,19.7-10.5l0.9,9h14.2v-61.2h-14.4L747.2,785.1L747.2,785.1z M729,788.8c24.1,0,24.1,37,0,37
	c-9.9,0-18.2-6.8-18.2-18.8C710.8,795.6,719.2,788.8,729,788.8L729,788.8z M825.8,782.7c-6.8-6.1-14.4-8.3-24.1-8.3
	c-11.4,0-25.7,5.3-25.7,18.8c0,13.6,13.6,18.2,25,18.8c8.3,0.9,12.1,2.3,12.1,6.8c0,4.5-5.3,7.5-11.4,7.5c-6.8,0-16.7-3.8-21.2-8.3
	l-7.5,10.5c9,9,18.8,10.5,28,10.5c17.3,0,26.5-9,26.5-20.4c0-16.7-14.4-18.8-26.5-19.7c-7.5-0.9-11.4-3-11.4-6.8
	c0-3.8,3.8-6.1,11.4-6.1c6.1,0,10.5,1.5,15.2,5.3L825.8,782.7L825.8,782.7z M888.5,782.7c-6.8-6.1-14.4-8.3-24.1-8.3
	c-11.4,0-25.7,5.3-25.7,18.8c0,13.6,13.6,18.2,25,18.8c8.3,0.9,12.1,2.3,12.1,6.8c0,4.5-5.3,7.5-11.4,7.5c-6.8,0-16.7-3.8-21.2-8.3
	l-7.5,10.5c9,9,18.8,10.5,28,10.5c17.3,0,26.5-9,26.5-20.4c0-16.7-14.4-18.8-26.5-19.7c-7.5-0.9-11.4-3-11.4-6.8
	c0-3.8,3.8-6.1,11.4-6.1c6.1,0,10.5,1.5,15.2,5.3L888.5,782.7L888.5,782.7z"/>
<g>
	<path fill="#08B0E9" d="M227.7,749.1c30.3,0,54.7,24.4,54.7,54.7s-24.4,54.7-54.7,54.7S173,834.2,173,803.9
		C173.1,773.6,197.5,749.1,227.7,749.1L227.7,749.1z"/>
	<path fill="#8F42A6" d="M196.9,819.9L196.9,819.9c0-8,6.5-14.5,14.5-14.5H280c8,0,14.5,6.5,14.5,14.5l0,0c0,8-6.5,14.5-14.5,14.5
		h-68.5C203.5,834.6,196.9,827.9,196.9,819.9L196.9,819.9z"/>
	<path fill="#FFE012" d="M109.6,749.1c30.3,0,54.7,24.4,54.7,54.7s-24.4,54.7-54.7,54.7s-54.7-24.4-54.7-54.7
		C55,773.6,79.4,749.1,109.6,749.1L109.6,749.1z"/>
	<path fill="#EF088A" d="M153,751.4L153,751.4c8,0,14.5,6.5,14.5,14.5v76.3c0,8-6.5,14.5-14.5,14.5l0,0c-8,0-14.5-6.5-14.5-14.5V766
		C138.3,758.1,145,751.4,153,751.4L153,751.4z"/>
</g>
</svg>
