<?xml version="1.0" encoding="utf-8"?>
<!-- Generator: Adobe Illustrator 18.1.1, SVG Export Plug-In . SVG Version: 6.00 Build 0)  -->
<svg version="1.1" id="Layer_1" xmlns="http://www.w3.org/2000/svg" xmlns:xlink="http://www.w3.org/1999/xlink" x="0px" y="0px"
	 viewBox="0 0 120 120" enable-background="new 0 0 120 120" xml:space="preserve">
<path fill="#99c6f2" d="M83.8,35.4c13.6,0,24.6,11,24.6,24.6s-11,24.6-24.6,24.6S59.2,73.6,59.2,60
	C59.2,46.4,70.2,35.4,83.8,35.4L83.8,35.4z"/>
<path fill="#FFFFFF" d="M69.9,67.2L69.9,67.2c0-3.6,2.9-6.5,6.5-6.5h30.9c3.6,0,6.5,2.9,6.5,6.5l0,0c0,3.6-2.9,6.5-6.5,6.5
	H76.5C72.9,73.8,69.9,70.8,69.9,67.2L69.9,67.2z"/>
<path fill="#FFFFFF" d="M30.7,35.4c13.6,0,24.6,11,24.6,24.6s-11,24.6-24.6,24.6S6.1,73.6,6.1,60
	C6.1,46.4,17.1,35.4,30.7,35.4L30.7,35.4z"/>
<path fill="#99c6f2" d="M50.2,36.4L50.2,36.4c3.6,0,6.5,2.9,6.5,6.5v34.3c0,3.6-2.9,6.5-6.5,6.5l0,0c-3.6,0-6.5-2.9-6.5-6.5
	V43C43.6,39.4,46.6,36.4,50.2,36.4L50.2,36.4z"/>
</svg>
