<?xml version="1.0" encoding="utf-8"?>
<!-- Generator: Adobe Illustrator 18.1.1, SVG Export Plug-In . SVG Version: 6.00 Build 0)  -->
<svg version="1.1" id="Layer_1" xmlns="http://www.w3.org/2000/svg" xmlns:xlink="http://www.w3.org/1999/xlink" x="0px" y="0px"
	 viewBox="303 310.3 798 406" enable-background="new 303 310.3 798 406" xml:space="preserve">
<g>
	<path fill="#08B0E9" d="M873.3,347.1c94.1,0,169.9,75.8,169.9,169.9S967.5,687,873.3,687s-169.9-75.5-169.9-169.6
		C703.7,423.2,779.5,347.1,873.3,347.1L873.3,347.1z"/>
	<path fill="#8F42A6" d="M777.6,567.1L777.6,567.1c0-24.9,20.2-45,45-45h213.1c24.9,0,45,20.2,45,45l0,0c0,24.9-20.2,45-45,45H823
		C798.1,612.7,777.6,591.9,777.6,567.1L777.6,567.1z"/>
	<path fill="#FFE012" d="M506.4,347.1c94.1,0,169.9,75.8,169.9,169.9S600.6,687,506.4,687S336.5,611.2,336.5,517
		C336.8,423.2,412.6,347.1,506.4,347.1L506.4,347.1z"/>
	<path fill="#EF088A" d="M641.3,354.3L641.3,354.3c24.9,0,45,20.2,45,45v237c0,24.9-20.2,45-45,45l0,0c-24.9,0-45-20.2-45-45V399.6
		C595.6,375.1,616.4,354.3,641.3,354.3L641.3,354.3z"/>
</g>
</svg>
