<?xml version="1.0" encoding="utf-8"?>
<!-- Generator: Adobe Illustrator 18.1.1, SVG Export Plug-In . SVG Version: 6.00 Build 0)  -->
<svg version="1.1" id="Layer_1" xmlns="http://www.w3.org/2000/svg" xmlns:xlink="http://www.w3.org/1999/xlink" x="0px" y="0px"
	 viewBox="52 509.6 792 117.7" enable-background="new 52 509.6 792 117.7" xml:space="preserve">
<path fill="#FFFFFF" d="M361,547.6c-3.6-5.7-10.7-9.3-18.5-9.3c-17.1,0-29.8,9.9-29.8,29.8c0,19.9,12.8,30.6,29.8,30.6
	c6.4,0,15.7-3.6,18.5-9.9l0.8,8.5h13.5v-57.6h-13.5L361,547.6L361,547.6z M343.9,551.1c22.7,0,22.7,34.8,0,34.8
	c-9.3,0-17.1-6.4-17.1-17.7C326.9,557.5,334,551.1,343.9,551.1L343.9,551.1z M447.1,573.9c2.2-23.5-9.9-35.6-29.2-35.6
	c-18.5,0-30.6,12.8-30.6,29.8c0,18.5,12.1,30.6,32,30.6c8.5,0,18.5-2.8,24.9-9.3l-9.3-9.3c-3.6,3.6-9.9,5.7-15.7,5.7
	c-9.9,0-16.3-5-17.1-12.1L447.1,573.9L447.1,573.9z M402.2,561.7c2.2-7.1,8.5-11.4,16.3-11.4c7.8,0,14.3,3.6,14.9,11.4H402.2
	L402.2,561.7z M459.9,539.8v57.6h14.3v-30.6c0-10.7,7.1-14.9,14.3-14.9c5,0,7.1,1.4,9.9,3.6l6.4-12.1c-2.8-2.8-8.5-5.7-14.9-5.7
	c-5.7,0-12.1,0.8-16.3,7.8l-0.8-6.4L459.9,539.8L459.9,539.8z M558,547.6c-3.6-5.7-10.7-9.3-18.5-9.3c-17.1,0-29.8,9.9-29.8,29.8
	c0,19.9,12.8,30.6,29.8,30.6c6.4,0,15.7-3.6,18.5-9.9l0.8,8.5h13.5v-57.6h-13.6L558,547.6L558,547.6z M541,551.1
	c22.7,0,22.7,34.8,0,34.8c-9.3,0-17.1-6.4-17.1-17.7C523.9,557.5,531.7,551.1,541,551.1L541,551.1z M617.7,585.3
	c-9.9,0-16.3-7.1-16.3-16.3c0-9.3,6.4-16.3,16.3-16.3s16.3,7.1,16.3,16.3C634.2,577.4,627.7,585.3,617.7,585.3L617.7,585.3z
	 M600,621.5v-30.6c4.2,6.4,12.8,7.8,19.2,7.8c18.5,0,29.2-13.5,29.2-29.8c0-17.1-12.1-29.8-29.8-29.8c-6.4,0-14.3,2.8-18.5,9.3
	l-0.8-7.8h-13.5v81.7H600V621.5z M706,547.6c-3.6-5.7-10.7-9.3-18.5-9.3c-17.1,0-29.8,9.9-29.8,29.8c0,19.9,12.8,30.6,29.8,30.6
	c6.4,0,15.7-3.6,18.5-9.9l0.8,8.5h13.4v-57.6h-13.5L706,547.6L706,547.6z M688.9,551.1c22.7,0,22.7,34.8,0,34.8
	c-9.3,0-17.1-6.4-17.1-17.7C671.8,557.5,679.7,551.1,688.9,551.1L688.9,551.1z M779.9,545.4c-6.4-5.7-13.5-7.8-22.7-7.8
	c-10.7,0-24.2,5-24.2,17.7c0,12.8,12.8,17.1,23.5,17.7c7.8,0.8,11.4,2.2,11.4,6.4c0,4.2-5,7.1-10.7,7.1c-6.4,0-15.7-3.6-19.9-7.8
	l-7.1,9.9c8.5,8.5,17.7,9.9,26.3,9.9c16.3,0,24.9-8.5,24.9-19.2c0-15.7-13.5-17.7-24.9-18.5c-7.1-0.8-10.7-2.8-10.7-6.4
	s3.6-5.7,10.7-5.7c5.7,0,9.9,1.4,14.3,5L779.9,545.4L779.9,545.4z M838.9,545.4c-6.4-5.7-13.5-7.8-22.7-7.8
	c-10.7,0-24.2,5-24.2,17.7c0,12.8,12.8,17.1,23.5,17.7c7.8,0.8,11.4,2.2,11.4,6.4c0,4.2-5,7.1-10.7,7.1c-6.4,0-15.7-3.6-19.9-7.8
	l-7.1,9.9c8.5,8.5,17.7,9.9,26.3,9.9c16.3,0,24.9-8.5,24.9-19.2c0-15.7-13.5-17.7-24.9-18.5c-7.1-0.8-10.7-2.8-10.7-6.4
	s3.6-5.7,10.7-5.7c5.7,0,9.9,1.4,14.3,5L838.9,545.4L838.9,545.4z"/>
<g>
	<path fill="#93D1FE" d="M217.3,513.8c28.5,0,51.5,23,51.5,51.5c0,28.5-23,51.5-51.5,51.5s-51.5-23-51.5-51.5
		C165.9,536.8,188.9,513.8,217.3,513.8L217.3,513.8z"/>
	<path fill="#FFFFFF" d="M188.3,580.4L188.3,580.4c0-7.5,6.1-13.6,13.6-13.6h64.6c7.5,0,13.6,6.1,13.6,13.6l0,0
		c0,7.5-6.1,13.6-13.6,13.6h-64.4C194.5,594.2,188.3,587.9,188.3,580.4L188.3,580.4z"/>
	<path fill="#FFFFFF" d="M106.2,513.8c28.5,0,51.5,23,51.5,51.5c0,28.5-23,51.5-51.5,51.5s-51.5-23-51.5-51.5
		C54.8,536.8,77.8,513.8,106.2,513.8L106.2,513.8z"/>
	<path fill="#93D1FE" d="M147,515.9L147,515.9c7.5,0,13.6,6.1,13.6,13.6v71.8c0,7.5-6.1,13.6-13.6,13.6l0,0
		c-7.5,0-13.6-6.1-13.6-13.6v-71.6C133.2,522.2,139.5,515.9,147,515.9L147,515.9z"/>
</g>
</svg>
