<?xml version="1.0" encoding="utf-8"?>
<!-- Generator: Adobe Illustrator 18.1.1, SVG Export Plug-In . SVG Version: 6.00 Build 0)  -->
<svg version="1.1" id="Ebene_1" xmlns="http://www.w3.org/2000/svg" xmlns:xlink="http://www.w3.org/1999/xlink" x="0px" y="0px"
	 viewBox="5.2 -0.1 610.8 124" enable-background="new 5.2 -0.1 610.8 124" xml:space="preserve">
<g>
	<g transform="translate(889.125 312.4888534891045) scale(3.1357466063348416 3.1357466063348416) rotate(0 0 0)">
		<g enable-background="new    ">
			<path fill="#FFFFFF" d="M-231.2-85c1.2-2,3.1-3.1,5.5-3.1v4.9c-3.1-0.3-5.2,1.2-5.5,3.6v8.7h-5.4v-16.8h5.4V-85z"/>
			<path fill="#FFFFFF" d="M-208.6-78h-11.8c0.5,2,2,3.1,4,3.1c1.5,0,2.9-0.6,4-1.7l2.8,2.8c-1.7,1.9-4.3,3-7.3,3
				c-5.5,0-8.9-3.4-8.9-8.6c0-5.2,3.6-8.7,8.8-8.7C-211.2-88.1-208.2-84.2-208.6-78z M-213.8-80.9c0-2.1-1.3-3.4-3.3-3.4
				c-1.9,0-3.2,1.4-3.5,3.4H-213.8z"/>
			<path fill="#FFFFFF" d="M-190.8-72.6c0,4.8-3.7,7.8-9.1,7.8c-2.9,0-5.6-0.9-7.5-2.2l1.9-3.7c1.5,1.1,3.4,1.7,5.2,1.7
				c2.6,0,4.2-1.4,4.2-3.5v-1.8c-1.1,1.4-2.8,2.3-4.8,2.3c-4.3,0-7.3-3.3-7.3-8.2c0-4.8,2.9-8,7.1-8c2.2,0,3.8,0.8,5,2.3v-2.1h5.4
				V-72.6z M-196.2-79.9c0-2.5-1.4-4.1-3.5-4.1c-2.1,0-3.6,1.7-3.6,4.1c0,2.4,1.4,4.1,3.6,4.1C-197.6-75.9-196.2-77.5-196.2-79.9z"
				/>
			<path fill="#FFFFFF" d="M-182.4-92.7c0,1.7-1.2,2.9-2.8,2.9c-1.7,0-2.8-1.2-2.8-2.9c0-1.7,1.2-2.8,2.8-2.8
				C-183.6-95.6-182.4-94.4-182.4-92.7z M-187.9-71v-16.8h5.4V-71H-187.9z"/>
			<path fill="#FFFFFF" d="M-166.5-86.2l-1.8,3.5c-2-1.1-3.9-1.7-5.3-1.7c-1,0-1.7,0.4-1.7,1.2c0,2.3,8.9,1.2,8.8,7.1
				c0,3.5-3,5.4-7.1,5.4c-2.8,0-5.5-0.8-7.6-2.4l1.7-3.4c1.9,1.3,4.1,2.1,6,2.1c1.1,0,1.8-0.4,1.8-1.2c0-2.5-8.7-1.2-8.7-7.1
				c0-3.5,2.9-5.3,6.8-5.3C-171-88.1-168.6-87.4-166.5-86.2z"/>
			<path fill="#FFFFFF" d="M-153.8-71.9c-1.2,0.7-2.9,1.2-4.5,1.2c-3.3,0-5.6-1.8-5.6-5.3v-7.4h-2.3v-3.5h2.3v-4.7h5.4v4.7h4.4v3.6
				h-4.4v6.6c0,1.3,0.6,1.9,1.6,1.8c0.6,0,1.3-0.2,2.1-0.6L-153.8-71.9z"/>
			<path fill="#FFFFFF" d="M-136.6-78h-11.8c0.5,2,2,3.1,4,3.1c1.5,0,2.9-0.6,4-1.7l2.8,2.8c-1.7,1.9-4.3,3-7.3,3
				c-5.5,0-8.9-3.4-8.9-8.6c0-5.2,3.6-8.7,8.8-8.7C-139.1-88.1-136.2-84.2-136.6-78z M-141.7-80.9c0-2.1-1.3-3.4-3.3-3.4
				c-1.9,0-3.2,1.4-3.5,3.4H-141.7z"/>
			<path fill="#FFFFFF" d="M-129.5-85c1.2-2,3.1-3.1,5.5-3.1v4.9c-3.1-0.3-5.2,1.2-5.5,3.6v8.7h-5.4v-16.8h5.4V-85z"/>
			<path fill="#FFFFFF" d="M-106.9-78h-11.8c0.5,2,2,3.1,4,3.1c1.5,0,2.9-0.6,4-1.7l2.8,2.8c-1.7,1.9-4.3,3-7.3,3
				c-5.5,0-8.9-3.4-8.9-8.6c0-5.2,3.6-8.7,8.8-8.7C-109.5-88.1-106.5-84.2-106.9-78z M-112.1-80.9c0-2.1-1.3-3.4-3.3-3.4
				c-1.9,0-3.2,1.4-3.5,3.4H-112.1z"/>
			<path fill="#FFFFFF" d="M-95.8-87.9h5.9l-5.3,8.2l5.7,8.7h-6.2l-3.1-5.3l-3.4,5.3h-5.9l5.8-8.6l-5.4-8.2h6.2l2.8,4.8L-95.8-87.9z
				"/>
		</g>
	</g>
</g>
<g>
	<g transform="translate(739.0713264466998 218) scale(0.8915304201971036 0.8915304201971036) rotate(0 0 0)">
		<g>
			<path fill="#FFFFFF" d="M-737.3-146.8l-15.3-19.5l-19.5,25.2c0.8,2.7,1.1,5.5,1.1,8.2c0,1.6-0.2,3.2-0.4,4.7
				c5.7,1.9,11.8,2.9,18.2,2.9c7.9,0,15.4-1.5,22.2-4.4c-3.9-4.3-6.3-10-6.3-16.2C-737.3-146.2-737.3-146.5-737.3-146.8z"/>
			<path fill="#FFFFFF" d="M-801.2-163.7l21.5-27.8c-0.3-1.5-0.4-3.2-0.4-4.8c0-15.1,12.4-27.4,27.4-27.4
				c15.1,0,27.4,12.3,27.4,27.4c0,1.6-0.1,3.2-0.4,4.7l17.3,22.1c3.7,0.8,7.2,2.5,10.2,4.8c2-5.8,3.1-12.2,3.1-18.7
				c0-32.1-26.1-58.2-58.2-58.2c-32,0-58,26.1-58,58.2c0,7.1,1.2,14,3.6,20.2c1.9-0.4,3.9-0.6,5.9-0.6
				C-801.6-163.7-801.4-163.7-801.2-163.7z"/>
			<path fill="#FFFFFF" d="M-713.1-159.5c-0.2,0-0.4,0-0.6,0l-23.5-29.9c1-2.1,1.4-4.5,1.4-6.9c0-9.4-7.6-17-17-17
				c-9.4,0-17,7.6-17,17c0,2.5,0.6,4.9,1.5,7l-28.5,36.8c-1.6-0.5-3.4-0.7-5.2-0.7c-11.2,0-20.3,9.1-20.3,20.3
				c0,11.2,9.1,20.3,20.3,20.3s20.3-9.1,20.3-20.3c0-3.6-1-7-2.6-10l28.5-36.8c1,0.2,1.9,0.3,3,0.3s2-0.1,3.1-0.3l23.4,29.9
				c-0.4,1.2-0.6,2.5-0.6,3.8c0,7.5,6,13.6,13.6,13.6c7.5,0,13.6-6,13.6-13.6C-699.6-153.4-705.6-159.5-713.1-159.5z"/>
		</g>
	</g>
</g>
</svg>
