<?xml version="1.0" encoding="utf-8"?>
<!-- Generator: Adobe Illustrator 18.1.1, SVG Export Plug-In . SVG Version: 6.00 Build 0)  -->
<svg version="1.1" id="Layer_1" xmlns="http://www.w3.org/2000/svg" xmlns:xlink="http://www.w3.org/1999/xlink" x="0px" y="0px"
	 viewBox="0.2 48.8 41.4 31.1" enable-background="new 0.2 48.8 41.4 31.1" xml:space="preserve">
<path fill="#374767" d="M5.5,73.3c-0.2-0.4-0.8-0.7-1.3-0.7c-1.2,0-2.1,0.7-2.1,2.1c0,1.4,0.9,2.2,2.1,2.2c0.5,0,1.1-0.2,1.3-0.7
	l0.1,0.6h1v-4.1h-1L5.5,73.3L5.5,73.3z M4.3,73.5c1.6,0,1.6,2.5,0,2.5c-0.7,0-1.2-0.5-1.2-1.2C3.1,73.9,3.6,73.5,4.3,73.5L4.3,73.5z
	 M11.6,75.1c0.2-1.7-0.7-2.5-2.1-2.5c-1.3,0-2.2,0.9-2.2,2.1c0,1.3,0.8,2.2,2.3,2.2c0.6,0,1.3-0.2,1.8-0.7l-0.6-0.6
	C10.5,75.8,10,76,9.7,76c-0.7,0-1.2-0.4-1.2-0.9L11.6,75.1L11.6,75.1z M8.5,74.3c0.2-0.5,0.6-0.8,1.1-0.8c0.6,0,1,0.3,1.1,0.8H8.5
	L8.5,74.3z M12.6,72.7v4.1h1v-2.2c0-0.8,0.5-1,1-1c0.3,0,0.5,0.1,0.7,0.3l0.5-0.9c-0.2-0.2-0.6-0.4-1.1-0.4c-0.4,0-0.8,0.1-1.2,0.6
	l-0.1-0.5L12.6,72.7L12.6,72.7z M19.5,73.3c-0.2-0.4-0.8-0.7-1.3-0.7c-1.2,0-2.1,0.7-2.1,2.1c0,1.4,0.9,2.2,2.1,2.2
	c0.5,0,1.1-0.2,1.3-0.7l0.1,0.6h1v-4.1h-1L19.5,73.3L19.5,73.3z M18.3,73.5c1.6,0,1.6,2.5,0,2.5c-0.7,0-1.2-0.5-1.2-1.2
	C17.1,73.9,17.6,73.5,18.3,73.5L18.3,73.5z M23.8,75.9c-0.7,0-1.2-0.5-1.2-1.2c0-0.6,0.4-1.2,1.2-1.2c0.7,0,1.2,0.5,1.2,1.2
	C25,75.4,24.5,75.9,23.8,75.9L23.8,75.9z M22.5,78.5v-2.2c0.3,0.4,0.9,0.6,1.4,0.6c1.3,0,2.1-1,2.1-2.1c0-1.2-0.8-2.1-2.1-2.1
	c-0.5,0-1,0.2-1.3,0.7l-0.1-0.6h-1v5.8H22.5L22.5,78.5z M30.1,73.3c-0.2-0.4-0.8-0.7-1.3-0.7c-1.2,0-2.1,0.7-2.1,2.1
	c0,1.4,0.9,2.2,2.1,2.2c0.5,0,1.1-0.2,1.3-0.7l0.1,0.6h1v-4.1h-1L30.1,73.3L30.1,73.3z M28.9,73.5c1.6,0,1.6,2.5,0,2.5
	c-0.7,0-1.2-0.5-1.2-1.2C27.6,73.9,28.2,73.5,28.9,73.5L28.9,73.5z M35.3,73.1c-0.5-0.4-1-0.5-1.6-0.5c-0.7,0-1.7,0.3-1.7,1.3
	c0,0.9,0.9,1.2,1.7,1.3c0.6,0,0.8,0.2,0.8,0.4c0,0.3-0.4,0.5-0.7,0.5c-0.5,0-1.1-0.3-1.4-0.6l-0.5,0.7c0.6,0.6,1.2,0.7,1.9,0.7
	c1.2,0,1.8-0.6,1.8-1.3c0-1.1-1-1.3-1.8-1.3c-0.5,0-0.8-0.2-0.8-0.4c0-0.3,0.3-0.4,0.7-0.4c0.4,0,0.7,0.1,1,0.4L35.3,73.1L35.3,73.1
	z M39.5,73.1c-0.5-0.4-1-0.5-1.6-0.5c-0.7,0-1.7,0.3-1.7,1.3c0,0.9,0.9,1.2,1.7,1.3c0.6,0,0.8,0.2,0.8,0.4c0,0.3-0.4,0.5-0.7,0.5
	c-0.5,0-1.1-0.3-1.4-0.6l-0.5,0.7c0.6,0.6,1.2,0.7,1.9,0.7c1.2,0,1.8-0.6,1.8-1.3c0-1.1-1-1.3-1.8-1.3c-0.5,0-0.8-0.2-0.8-0.4
	c0-0.3,0.3-0.4,0.7-0.4c0.4,0,0.7,0.1,1,0.4L39.5,73.1L39.5,73.1z"/>
<g>
	<path fill="#08B0E9" d="M29.7,50.5c4.8,0,8.8,3.9,8.8,8.8S34.6,68,29.7,68S21,64.1,21,59.3S24.9,50.5,29.7,50.5L29.7,50.5z"/>
	<path fill="#8F42A6" d="M24.8,61.9L24.8,61.9c0-1.3,1-2.3,2.3-2.3h11c1.3,0,2.3,1,2.3,2.3l0,0c0,1.3-1,2.3-2.3,2.3h-11
		C25.8,64.2,24.8,63.1,24.8,61.9L24.8,61.9z"/>
	<path fill="#FFE012" d="M10.8,50.5c4.8,0,8.8,3.9,8.8,8.8S15.6,68,10.8,68s-8.8-3.9-8.8-8.8S6,50.5,10.8,50.5L10.8,50.5z"/>
	<path fill="#EF088A" d="M17.7,50.9L17.7,50.9c1.3,0,2.3,1,2.3,2.3v12.2c0,1.3-1,2.3-2.3,2.3l0,0c-1.3,0-2.3-1-2.3-2.3V53.2
		C15.4,52,16.5,50.9,17.7,50.9L17.7,50.9z"/>
</g>
</svg>
