<?xml version="1.0" standalone="no"?>
<!DOCTYPE svg PUBLIC "-//W3C//DTD SVG 20010904//EN"
 "http://www.w3.org/TR/2001/REC-SVG-20010904/DTD/svg10.dtd">
<svg version="1.0" xmlns="http://www.w3.org/2000/svg"
 width="554.000000pt" height="554.000000pt" viewBox="0 0 554.000000 554.000000"
 preserveAspectRatio="xMidYMid meet">
<metadata>
Created by potrace 1.11, written by Peter Selinger 2001-2013
</metadata>
<g transform="translate(0.000000,554.000000) scale(0.100000,-0.100000)"
fill="#000000" stroke="none">
<path d="M1165 3914 c-348 -61 -648 -270 -825 -575 -166 -283 -204 -650 -100
-960 26 -79 41 -114 95 -219 34 -66 155 -218 222 -280 168 -152 396 -265 598
-295 22 -4 51 -8 65 -11 33 -6 248 -6 280 0 14 3 43 7 65 11 118 17 331 98
415 158 l35 24 55 -57 c72 -75 145 -104 242 -97 123 8 212 70 267 187 l26 55
1 880 c1 853 0 882 -19 939 -27 81 -100 155 -180 185 -121 44 -242 17 -335
-75 l-53 -54 -37 24 c-100 63 -287 138 -382 152 -19 3 -54 9 -77 13 -68 13
-272 10 -358 -5z"/>
<path d="M3715 3914 c-201 -37 -330 -91 -490 -202 -455 -316 -625 -933 -398
-1446 166 -374 533 -645 939 -692 67 -8 256 -7 294 1 14 3 52 10 85 16 113 20
279 87 385 154 116 73 247 194 315 289 l40 56 98 0 c53 0 99 0 102 0 22 2 93
35 129 59 206 142 152 473 -90 550 -40 13 -41 14 -39 58 1 50 -17 203 -34 274
-34 147 -123 330 -220 452 -175 221 -439 377 -731 433 -68 12 -314 12 -385 -2z"/>
</g>
</svg>
